{
    "asset" : {
        "generator" : "Khronos glTF Blender I/O v3.4.50",
        "version" : "2.0"
    },
    "extensionsUsed" : [
        "KHR_materials_transmission",
        "KHR_materials_specular",
        "KHR_materials_ior"
    ],
    "scene" : 0,
    "scenes" : [
        {
            "name" : "Scene",
            "nodes" : [
                0
            ]
        }
    ],
    "nodes" : [
        {
            "mesh" : 0,
            "name" : "path30",
            "rotation" : [
                0.7071068286895752,
                0,
                0,
                0.7071068286895752
            ],
            "scale" : [
                20,
                20,
                20
            ]
        }
    ],
    "materials" : [
        {
            "doubleSided" : true,
            "extensions" : {
                "KHR_materials_transmission" : {
                    "transmissionFactor" : 0.5748031735420227
                },
                "KHR_materials_specular" : {
                    "specularColorFactor" : [
                        0.5951590535389275,
                        0.5951590535389275,
                        0.5951590535389275
                    ]
                },
                "KHR_materials_ior" : {
                    "ior" : 0
                }
            },
            "name" : "SVGMat.002",
            "pbrMetallicRoughness" : {
                "baseColorFactor" : [
                    0.800000011920929,
                    0.800000011920929,
                    0.800000011920929,
                    1
                ],
                "metallicFactor" : 0.9842519760131836,
                "roughnessFactor" : 0
            }
        }
    ],
    "meshes" : [
        {
            "name" : "path30",
            "primitives" : [
                {
                    "attributes" : {
                        "POSITION" : 0,
                        "TEXCOORD_0" : 1,
                        "NORMAL" : 2
                    },
                    "indices" : 3,
                    "material" : 0
                }
            ]
        }
    ],
    "accessors" : [
        {
            "bufferView" : 0,
            "componentType" : 5126,
            "count" : 23573,
            "max" : [
                0.10141228139400482,
                0,
                0.06456831097602844
            ],
            "min" : [
                -0.10248882323503494,
                -0.005000000353902578,
                -0.04595674201846123
            ],
            "type" : "VEC3"
        },
        {
            "bufferView" : 1,
            "componentType" : 5126,
            "count" : 23573,
            "type" : "VEC2"
        },
        {
            "bufferView" : 2,
            "componentType" : 5126,
            "count" : 23573,
            "type" : "VEC3"
        },
        {
            "bufferView" : 3,
            "componentType" : 5123,
            "count" : 37056,
            "type" : "SCALAR"
        }
    ],
    "bufferViews" : [
        {
            "buffer" : 0,
            "byteLength" : 282876,
            "byteOffset" : 0,
            "target" : 34962
        },
        {
            "buffer" : 0,
            "byteLength" : 188584,
            "byteOffset" : 282876,
            "target" : 34962
        },
        {
            "buffer" : 0,
            "byteLength" : 282876,
            "byteOffset" : 471460,
            "target" : 34962
        },
        {
            "buffer" : 0,
            "byteLength" : 74112,
            "byteOffset" : 754336,
            "target" : 34963
        }
    ],
    "buffers" : [
        {
            "byteLength" : 828448,
            "uri" : "data:application/octet-stream;base64,"
        }
    ]
}
